<svg width="200" height="33" viewBox="0 0 200 33" fill="none" xmlns="http://www.w3.org/2000/svg">
<rect width="200" height="33" fill="white"/>
<path d="M80.5322 23H73.1318V10.1504H80.5322V12.3828H75.8564V15.2041H80.207V17.4365H75.8564V20.75H80.5322V23ZM92.0811 23H89.4004V17.2607C89.4004 16.5518 89.2744 16.0215 89.0225 15.6699C88.7705 15.3125 88.3691 15.1338 87.8184 15.1338C87.0684 15.1338 86.5264 15.3857 86.1924 15.8896C85.8584 16.3877 85.6914 17.2168 85.6914 18.377V23H83.0107V13.1738H85.0586L85.4189 14.4307H85.5684C85.8672 13.9561 86.2773 13.5986 86.7988 13.3584C87.3262 13.1123 87.9238 12.9893 88.5918 12.9893C89.7344 12.9893 90.6016 13.2998 91.1934 13.9209C91.7852 14.5361 92.0811 15.4268 92.0811 16.5928V23ZM98.9805 21.04C99.4492 21.04 100.012 20.9375 100.668 20.7324V22.7275C100 23.0264 99.1797 23.1758 98.207 23.1758C97.1348 23.1758 96.3525 22.9062 95.8604 22.3672C95.374 21.8223 95.1309 21.0078 95.1309 19.9238V15.1865H93.8477V14.0527L95.3242 13.1562L96.0977 11.082H97.8115V13.1738H100.562V15.1865H97.8115V19.9238C97.8115 20.3047 97.917 20.5859 98.1279 20.7676C98.3447 20.9492 98.6289 21.04 98.9805 21.04ZM108.147 12.9893C108.511 12.9893 108.812 13.0156 109.053 13.0684L108.851 15.582C108.634 15.5234 108.37 15.4941 108.06 15.4941C107.204 15.4941 106.536 15.7139 106.056 16.1533C105.581 16.5928 105.344 17.208 105.344 17.999V23H102.663V13.1738H104.693L105.089 14.8262H105.221C105.525 14.2754 105.936 13.833 106.451 13.499C106.973 13.1592 107.538 12.9893 108.147 12.9893ZM117.077 23L116.559 21.6641H116.488C116.037 22.2324 115.571 22.6279 115.091 22.8506C114.616 23.0674 113.995 23.1758 113.228 23.1758C112.284 23.1758 111.54 22.9062 110.995 22.3672C110.456 21.8281 110.187 21.0605 110.187 20.0645C110.187 19.0215 110.55 18.2539 111.276 17.7617C112.009 17.2637 113.11 16.9883 114.581 16.9355L116.286 16.8828V16.4521C116.286 15.4561 115.776 14.958 114.757 14.958C113.972 14.958 113.049 15.1953 111.988 15.6699L111.101 13.8594C112.231 13.2676 113.485 12.9717 114.862 12.9717C116.181 12.9717 117.191 13.2588 117.895 13.833C118.598 14.4072 118.949 15.2803 118.949 16.4521V23H117.077ZM116.286 18.4473L115.249 18.4824C114.47 18.5059 113.89 18.6465 113.509 18.9043C113.128 19.1621 112.938 19.5547 112.938 20.082C112.938 20.8379 113.371 21.2158 114.238 21.2158C114.859 21.2158 115.354 21.0371 115.724 20.6797C116.099 20.3223 116.286 19.8477 116.286 19.2559V18.4473ZM127.202 12.9893C127.565 12.9893 127.867 13.0156 128.107 13.0684L127.905 15.582C127.688 15.5234 127.425 15.4941 127.114 15.4941C126.259 15.4941 125.591 15.7139 125.11 16.1533C124.636 16.5928 124.398 17.208 124.398 17.999V23H121.718V13.1738H123.748L124.144 14.8262H124.275C124.58 14.2754 124.99 13.833 125.506 13.499C126.027 13.1592 126.593 12.9893 127.202 12.9893Z" fill="#1E6496"/>
</svg>
